G04 #@! TF.GenerationSoftware,KiCad,Pcbnew,8.0.4-8.0.4-0~ubuntu22.04.1*
G04 #@! TF.CreationDate,2024-09-04T15:26:38-06:00*
G04 #@! TF.ProjectId,modulargas,6d6f6475-6c61-4726-9761-732e6b696361,rev?*
G04 #@! TF.SameCoordinates,Original*
G04 #@! TF.FileFunction,Soldermask,Bot*
G04 #@! TF.FilePolarity,Negative*
%FSLAX46Y46*%
G04 Gerber Fmt 4.6, Leading zero omitted, Abs format (unit mm)*
G04 Created by KiCad (PCBNEW 8.0.4-8.0.4-0~ubuntu22.04.1) date 2024-09-04 15:26:38*
%MOMM*%
%LPD*%
G01*
G04 APERTURE LIST*
G04 Aperture macros list*
%AMRoundRect*
0 Rectangle with rounded corners*
0 $1 Rounding radius*
0 $2 $3 $4 $5 $6 $7 $8 $9 X,Y pos of 4 corners*
0 Add a 4 corners polygon primitive as box body*
4,1,4,$2,$3,$4,$5,$6,$7,$8,$9,$2,$3,0*
0 Add four circle primitives for the rounded corners*
1,1,$1+$1,$2,$3*
1,1,$1+$1,$4,$5*
1,1,$1+$1,$6,$7*
1,1,$1+$1,$8,$9*
0 Add four rect primitives between the rounded corners*
20,1,$1+$1,$2,$3,$4,$5,0*
20,1,$1+$1,$4,$5,$6,$7,0*
20,1,$1+$1,$6,$7,$8,$9,0*
20,1,$1+$1,$8,$9,$2,$3,0*%
%AMFreePoly0*
4,1,19,0.500000,-0.750000,0.000000,-0.750000,0.000000,-0.744911,-0.071157,-0.744911,-0.207708,-0.704816,-0.327430,-0.627875,-0.420627,-0.520320,-0.479746,-0.390866,-0.500000,-0.250000,-0.500000,0.250000,-0.479746,0.390866,-0.420627,0.520320,-0.327430,0.627875,-0.207708,0.704816,-0.071157,0.744911,0.000000,0.744911,0.000000,0.750000,0.500000,0.750000,0.500000,-0.750000,0.500000,-0.750000,
$1*%
%AMFreePoly1*
4,1,19,0.000000,0.744911,0.071157,0.744911,0.207708,0.704816,0.327430,0.627875,0.420627,0.520320,0.479746,0.390866,0.500000,0.250000,0.500000,-0.250000,0.479746,-0.390866,0.420627,-0.520320,0.327430,-0.627875,0.207708,-0.704816,0.071157,-0.744911,0.000000,-0.744911,0.000000,-0.750000,-0.500000,-0.750000,-0.500000,0.750000,0.000000,0.750000,0.000000,0.744911,0.000000,0.744911,
$1*%
G04 Aperture macros list end*
%ADD10C,1.600000*%
%ADD11O,1.600000X1.600000*%
%ADD12R,1.700000X1.700000*%
%ADD13O,1.700000X1.700000*%
%ADD14C,2.500000*%
%ADD15RoundRect,0.250000X-1.000000X1.000000X-1.000000X-1.000000X1.000000X-1.000000X1.000000X1.000000X0*%
%ADD16C,2.400000*%
%ADD17R,1.050000X1.500000*%
%ADD18O,1.050000X1.500000*%
%ADD19C,1.200000*%
%ADD20RoundRect,0.250000X-0.750000X0.600000X-0.750000X-0.600000X0.750000X-0.600000X0.750000X0.600000X0*%
%ADD21O,2.000000X1.700000*%
%ADD22R,1.600000X1.600000*%
%ADD23RoundRect,0.250000X-0.650000X0.350000X-0.650000X-0.350000X0.650000X-0.350000X0.650000X0.350000X0*%
%ADD24O,1.800000X1.200000*%
%ADD25C,3.500000*%
%ADD26R,2.800000X2.800000*%
%ADD27C,2.800000*%
%ADD28C,3.200000*%
%ADD29R,3.500000X3.500000*%
%ADD30O,1.800000X1.800000*%
%ADD31O,1.500000X1.500000*%
%ADD32C,3.250000*%
%ADD33R,1.500000X1.500000*%
%ADD34C,1.500000*%
%ADD35C,2.300000*%
%ADD36C,1.728000*%
%ADD37R,1.500000X1.050000*%
%ADD38O,1.500000X1.050000*%
%ADD39FreePoly0,270.000000*%
%ADD40FreePoly1,270.000000*%
%ADD41C,2.000000*%
%ADD42C,1.000000*%
%ADD43C,0.600000*%
G04 APERTURE END LIST*
D10*
X94180000Y-139900000D03*
D11*
X101800000Y-139900000D03*
D12*
X70150000Y-37722500D03*
D13*
X70150000Y-45322500D03*
X70150000Y-51862500D03*
X70150000Y-67102500D03*
D14*
X85800000Y-120300000D03*
X91800000Y-134500000D03*
X79800000Y-134500000D03*
D15*
X91800000Y-122300000D03*
D14*
X79800000Y-122300000D03*
D16*
X114550000Y-143150000D03*
X114550000Y-150900000D03*
D17*
X113510000Y-132750000D03*
D18*
X114780000Y-132750000D03*
X116050000Y-132750000D03*
D10*
X148860000Y-90150000D03*
D11*
X151400000Y-90150000D03*
D12*
X138400000Y-107080000D03*
D13*
X138400000Y-109620000D03*
X138400000Y-112160000D03*
X138400000Y-114700000D03*
X138400000Y-117240000D03*
X138400000Y-119780000D03*
D10*
X119910000Y-136200000D03*
D11*
X122450000Y-136200000D03*
D19*
X160900000Y-38050000D03*
D20*
X162900000Y-39650000D03*
D21*
X162900000Y-42150000D03*
D17*
X157450000Y-90200000D03*
D18*
X156180000Y-90200000D03*
X154910000Y-90200000D03*
D22*
X119575000Y-144900000D03*
D11*
X119575000Y-147440000D03*
X119575000Y-149980000D03*
X119575000Y-152520000D03*
X119575000Y-155060000D03*
X119575000Y-157600000D03*
X119575000Y-160140000D03*
X119575000Y-162680000D03*
X127195000Y-162680000D03*
X127195000Y-160140000D03*
X127195000Y-157600000D03*
X127195000Y-155060000D03*
X127195000Y-152520000D03*
X127195000Y-149980000D03*
X127195000Y-147440000D03*
X127195000Y-144900000D03*
D10*
X158500000Y-82200000D03*
D11*
X148340000Y-82200000D03*
D23*
X155600000Y-49050000D03*
D24*
X155600000Y-51050000D03*
X155600000Y-53050000D03*
X155600000Y-55050000D03*
X155600000Y-57050000D03*
X155600000Y-59050000D03*
X155600000Y-61050000D03*
X155600000Y-63050000D03*
D16*
X120350000Y-140400000D03*
X128100000Y-140400000D03*
D10*
X122560000Y-124550000D03*
D11*
X112400000Y-124550000D03*
D10*
X108948000Y-143750000D03*
X91800000Y-143750000D03*
X91800000Y-183247000D03*
X108948000Y-183247000D03*
D25*
X108373500Y-148512500D03*
X92371500Y-178484500D03*
D10*
X122560000Y-127600000D03*
D11*
X112400000Y-127600000D03*
D12*
X150400000Y-137250000D03*
D13*
X150400000Y-139790000D03*
X150400000Y-142330000D03*
X150400000Y-144870000D03*
X150400000Y-147410000D03*
D10*
X158500000Y-76200000D03*
D11*
X148340000Y-76200000D03*
D14*
X101950000Y-120300000D03*
X107950000Y-134500000D03*
X95950000Y-134500000D03*
D15*
X107950000Y-122300000D03*
D14*
X95950000Y-122300000D03*
D10*
X87498000Y-143725000D03*
X70350000Y-143725000D03*
X70350000Y-183222000D03*
X87498000Y-183222000D03*
D25*
X86923500Y-148487500D03*
X70921500Y-178459500D03*
D10*
X158500000Y-85200000D03*
D11*
X148340000Y-85200000D03*
D26*
X74775000Y-90400000D03*
D27*
X74775000Y-85400000D03*
X74775000Y-80400000D03*
X74775000Y-75400000D03*
D28*
X89900000Y-102555000D03*
X89900000Y-46945000D03*
D29*
X89900000Y-111200000D03*
D25*
X89900000Y-39200000D03*
D28*
X111750000Y-102650000D03*
X111750000Y-47040000D03*
D29*
X111750000Y-111295000D03*
D25*
X111750000Y-39295000D03*
D12*
X127150000Y-109580000D03*
D13*
X127150000Y-112120000D03*
X127150000Y-114660000D03*
X127150000Y-117200000D03*
D26*
X74775000Y-111400000D03*
D27*
X74775000Y-106400000D03*
X74775000Y-101400000D03*
X74775000Y-96400000D03*
D10*
X148320000Y-69950000D03*
D11*
X158480000Y-69950000D03*
D30*
X130975000Y-41200000D03*
D31*
X131275000Y-44230000D03*
X136125000Y-44230000D03*
D30*
X136425000Y-41200000D03*
D13*
X124810000Y-41070000D03*
X124810000Y-43610000D03*
D12*
X124810000Y-46150000D03*
D13*
X124810000Y-48690000D03*
X124810000Y-51230000D03*
X124810000Y-53770000D03*
X124810000Y-56310000D03*
D12*
X124810000Y-58850000D03*
D13*
X124810000Y-61390000D03*
X124810000Y-63930000D03*
X124810000Y-66470000D03*
X124810000Y-69010000D03*
D12*
X124810000Y-71550000D03*
D13*
X124810000Y-74090000D03*
X124810000Y-76630000D03*
X124810000Y-79170000D03*
X124810000Y-81710000D03*
D12*
X124810000Y-84250000D03*
D13*
X124810000Y-86790000D03*
X124810000Y-89330000D03*
X142590000Y-89330000D03*
X142590000Y-86790000D03*
D12*
X142590000Y-84250000D03*
D13*
X142590000Y-81710000D03*
X142590000Y-79170000D03*
X142590000Y-76630000D03*
X142590000Y-74090000D03*
D12*
X142590000Y-71550000D03*
D13*
X142590000Y-69010000D03*
X142590000Y-66470000D03*
X142590000Y-63930000D03*
X142590000Y-61390000D03*
D12*
X142590000Y-58850000D03*
D13*
X142590000Y-56310000D03*
X142590000Y-53770000D03*
X142590000Y-51230000D03*
X142590000Y-48690000D03*
D12*
X142590000Y-46150000D03*
D13*
X142590000Y-43610000D03*
X142590000Y-41070000D03*
X131160000Y-89100000D03*
D12*
X133700000Y-89100000D03*
D13*
X136240000Y-89100000D03*
D16*
X120575000Y-166825000D03*
X128325000Y-166825000D03*
D12*
X150400000Y-172750000D03*
D13*
X150400000Y-170210000D03*
X150400000Y-167670000D03*
X150400000Y-165130000D03*
X150400000Y-162590000D03*
X150400000Y-160050000D03*
X150400000Y-157510000D03*
X150400000Y-154970000D03*
D10*
X122560000Y-121500000D03*
D11*
X112400000Y-121500000D03*
D10*
X158500000Y-79200000D03*
D11*
X148340000Y-79200000D03*
D16*
X114550000Y-155700000D03*
X114550000Y-163450000D03*
D32*
X127497000Y-181740000D03*
X114797000Y-181740000D03*
D33*
X124707000Y-179200000D03*
D34*
X123691000Y-177420000D03*
X122675000Y-179200000D03*
X121659000Y-177420000D03*
X120643000Y-179200000D03*
X119627000Y-177420000D03*
X118611000Y-179200000D03*
X117595000Y-177420000D03*
D35*
X129277000Y-178310000D03*
X113017000Y-178310000D03*
D36*
X132800000Y-134700000D03*
X132800000Y-137240000D03*
X132800000Y-139780000D03*
X132800000Y-142320000D03*
X132800000Y-144860000D03*
X132800000Y-147400000D03*
X132800000Y-149940000D03*
X132800000Y-152480000D03*
X132800000Y-155020000D03*
X132800000Y-157560000D03*
X132800000Y-160100000D03*
X132800000Y-162640000D03*
X132800000Y-165180000D03*
X132800000Y-167720000D03*
X132800000Y-170260000D03*
X132800000Y-172800000D03*
X132800000Y-175340000D03*
X132800000Y-177880000D03*
X132800000Y-180420000D03*
X155660000Y-134700000D03*
X155660000Y-137240000D03*
X155660000Y-139780000D03*
X155660000Y-142320000D03*
X155660000Y-144860000D03*
X155660000Y-147400000D03*
X155660000Y-149940000D03*
X155660000Y-152480000D03*
X155660000Y-155020000D03*
X155660000Y-157560000D03*
X155660000Y-160100000D03*
X155660000Y-162640000D03*
X155660000Y-165180000D03*
X155660000Y-167720000D03*
X155660000Y-170260000D03*
X155660000Y-172800000D03*
X155660000Y-175340000D03*
X155660000Y-177880000D03*
X155660000Y-180420000D03*
D17*
X113510000Y-137650000D03*
D18*
X114780000Y-137650000D03*
X116050000Y-137650000D03*
D10*
X150750000Y-49050000D03*
D11*
X150750000Y-38890000D03*
D10*
X119910000Y-132950000D03*
D11*
X122450000Y-132950000D03*
D37*
X155700000Y-41500000D03*
D38*
X155700000Y-42770000D03*
X155700000Y-44040000D03*
D10*
X147350000Y-38900000D03*
D11*
X147350000Y-49060000D03*
D12*
X163900000Y-92810000D03*
D13*
X163900000Y-90270000D03*
X163900000Y-87730000D03*
X163900000Y-85190000D03*
X163900000Y-82650000D03*
X163900000Y-80110000D03*
X163900000Y-77570000D03*
X163900000Y-75030000D03*
X163900000Y-72490000D03*
X163900000Y-69950000D03*
D10*
X122560000Y-118450000D03*
D11*
X112400000Y-118450000D03*
D10*
X69700000Y-128410000D03*
D11*
X69700000Y-120790000D03*
D10*
X69700000Y-139970000D03*
D11*
X69700000Y-132350000D03*
D39*
X146450000Y-161450000D03*
D40*
X146450000Y-162750000D03*
D34*
X126100000Y-134700000D03*
D41*
X146450000Y-165650000D03*
D10*
X142000000Y-167000000D03*
D42*
X144700000Y-167675000D03*
D43*
X140250000Y-130900000D03*
X141150000Y-130900000D03*
X138100000Y-130900000D03*
X136800000Y-130900000D03*
X133750000Y-132500000D03*
X144750000Y-131750000D03*
X158762500Y-121437500D03*
M02*
