M48
; DRILL file {KiCad 8.0.4-8.0.4-0~ubuntu22.04.1} date 2024-09-04T15:26:41-0600
; FORMAT={-:-/ absolute / metric / decimal}
; #@! TF.CreationDate,2024-09-04T15:26:41-06:00
; #@! TF.GenerationSoftware,Kicad,Pcbnew,8.0.4-8.0.4-0~ubuntu22.04.1
; #@! TF.FileFunction,Plated,1,2,PTH
FMAT,2
METRIC
; #@! TA.AperFunction,Plated,PTH,ViaDrill
T1C0.300
; #@! TA.AperFunction,Plated,PTH,ViaDrill
T2C0.500
; #@! TA.AperFunction,Plated,PTH,ComponentDrill
T3C0.750
; #@! TA.AperFunction,Plated,PTH,ViaDrill
T4C0.800
; #@! TA.AperFunction,Plated,PTH,ComponentDrill
T5C0.800
; #@! TA.AperFunction,Plated,PTH,ComponentDrill
T6C0.890
; #@! TA.AperFunction,Plated,PTH,ViaDrill
T7C1.000
; #@! TA.AperFunction,Plated,PTH,ComponentDrill
T8C1.000
; #@! TA.AperFunction,Plated,PTH,ComponentDrill
T9C1.016
; #@! TA.AperFunction,Plated,PTH,ComponentDrill
T10C1.020
; #@! TA.AperFunction,Plated,PTH,ComponentDrill
T11C1.200
; #@! TA.AperFunction,Plated,PTH,ComponentDrill
T12C1.300
; #@! TA.AperFunction,Plated,PTH,ComponentDrill
T13C1.400
; #@! TA.AperFunction,Plated,PTH,ComponentDrill
T14C1.570
; #@! TA.AperFunction,Plated,PTH,ComponentDrill
T15C2.000
; #@! TA.AperFunction,Plated,PTH,ComponentDrill
T16C2.500
%
G90
G05
T1
X133.75Y-132.5
X136.8Y-130.9
X138.1Y-130.9
X140.25Y-130.9
X141.15Y-130.9
X144.75Y-131.75
X158.762Y-121.438
T2
X144.7Y-167.675
T3
X113.51Y-132.75
X113.51Y-137.65
X114.78Y-132.75
X114.78Y-137.65
X116.05Y-132.75
X116.05Y-137.65
X154.91Y-90.2
X155.7Y-41.5
X155.7Y-42.77
X155.7Y-44.04
X156.18Y-90.2
X157.45Y-90.2
T4
X142.0Y-167.0
T5
X69.7Y-120.79
X69.7Y-128.41
X69.7Y-132.35
X69.7Y-139.97
X70.35Y-143.725
X70.35Y-183.222
X87.498Y-143.725
X87.498Y-183.222
X91.8Y-143.75
X91.8Y-183.247
X94.18Y-139.9
X101.8Y-139.9
X108.948Y-143.75
X108.948Y-183.247
X112.4Y-118.45
X112.4Y-121.5
X112.4Y-124.55
X112.4Y-127.6
X119.575Y-144.9
X119.575Y-147.44
X119.575Y-149.98
X119.575Y-152.52
X119.575Y-155.06
X119.575Y-157.6
X119.575Y-160.14
X119.575Y-162.68
X119.91Y-132.95
X119.91Y-136.2
X122.45Y-132.95
X122.45Y-136.2
X122.56Y-118.45
X122.56Y-121.5
X122.56Y-124.55
X122.56Y-127.6
X127.195Y-144.9
X127.195Y-147.44
X127.195Y-149.98
X127.195Y-152.52
X127.195Y-155.06
X127.195Y-157.6
X127.195Y-160.14
X127.195Y-162.68
X147.35Y-38.9
X147.35Y-49.06
X148.32Y-69.95
X148.34Y-76.2
X148.34Y-79.2
X148.34Y-82.2
X148.34Y-85.2
X148.86Y-90.15
X150.75Y-38.89
X150.75Y-49.05
X151.4Y-90.15
X155.6Y-49.05
X155.6Y-51.05
X155.6Y-53.05
X155.6Y-55.05
X155.6Y-57.05
X155.6Y-59.05
X155.6Y-61.05
X155.6Y-63.05
X158.48Y-69.95
X158.5Y-76.2
X158.5Y-79.2
X158.5Y-82.2
X158.5Y-85.2
T6
X117.595Y-177.42
X118.611Y-179.2
X119.627Y-177.42
X120.643Y-179.2
X121.659Y-177.42
X122.675Y-179.2
X123.691Y-177.42
X124.707Y-179.2
T7
X126.1Y-134.7
X146.45Y-165.65
T8
X70.15Y-37.722
X70.15Y-45.322
X70.15Y-51.862
X70.15Y-67.102
X127.15Y-109.58
X127.15Y-112.12
X127.15Y-114.66
X127.15Y-117.2
X138.4Y-107.08
X138.4Y-109.62
X138.4Y-112.16
X138.4Y-114.7
X138.4Y-117.24
X138.4Y-119.78
X150.4Y-137.25
X150.4Y-139.79
X150.4Y-142.33
X150.4Y-144.87
X150.4Y-147.41
X150.4Y-154.97
X150.4Y-157.51
X150.4Y-160.05
X150.4Y-162.59
X150.4Y-165.13
X150.4Y-167.67
X150.4Y-170.21
X150.4Y-172.75
X162.9Y-39.65
X162.9Y-42.15
X163.9Y-69.95
X163.9Y-72.49
X163.9Y-75.03
X163.9Y-77.57
X163.9Y-80.11
X163.9Y-82.65
X163.9Y-85.19
X163.9Y-87.73
X163.9Y-90.27
X163.9Y-92.81
T9
X132.8Y-134.7
X132.8Y-137.24
X132.8Y-139.78
X132.8Y-142.32
X132.8Y-144.86
X132.8Y-147.4
X132.8Y-149.94
X132.8Y-152.48
X132.8Y-155.02
X132.8Y-157.56
X132.8Y-160.1
X132.8Y-162.64
X132.8Y-165.18
X132.8Y-167.72
X132.8Y-170.26
X132.8Y-172.8
X132.8Y-175.34
X132.8Y-177.88
X132.8Y-180.42
X155.66Y-134.7
X155.66Y-137.24
X155.66Y-139.78
X155.66Y-142.32
X155.66Y-144.86
X155.66Y-147.4
X155.66Y-149.94
X155.66Y-152.48
X155.66Y-155.02
X155.66Y-157.56
X155.66Y-160.1
X155.66Y-162.64
X155.66Y-165.18
X155.66Y-167.72
X155.66Y-170.26
X155.66Y-172.8
X155.66Y-175.34
X155.66Y-177.88
X155.66Y-180.42
T10
X124.81Y-41.07
X124.81Y-43.61
X124.81Y-46.15
X124.81Y-48.69
X124.81Y-51.23
X124.81Y-53.77
X124.81Y-56.31
X124.81Y-58.85
X124.81Y-61.39
X124.81Y-63.93
X124.81Y-66.47
X124.81Y-69.01
X124.81Y-71.55
X124.81Y-74.09
X124.81Y-76.63
X124.81Y-79.17
X124.81Y-81.71
X124.81Y-84.25
X124.81Y-86.79
X124.81Y-89.33
X131.16Y-89.1
X133.7Y-89.1
X136.24Y-89.1
X142.59Y-41.07
X142.59Y-43.61
X142.59Y-46.15
X142.59Y-48.69
X142.59Y-51.23
X142.59Y-53.77
X142.59Y-56.31
X142.59Y-58.85
X142.59Y-61.39
X142.59Y-63.93
X142.59Y-66.47
X142.59Y-69.01
X142.59Y-71.55
X142.59Y-74.09
X142.59Y-76.63
X142.59Y-79.17
X142.59Y-81.71
X142.59Y-84.25
X142.59Y-86.79
X142.59Y-89.33
T11
X114.55Y-143.15
X114.55Y-150.9
X114.55Y-155.7
X114.55Y-163.45
X120.35Y-140.4
X120.575Y-166.825
X128.1Y-140.4
X128.325Y-166.825
T12
X79.8Y-122.3
X79.8Y-134.5
X85.8Y-120.3
X91.8Y-122.3
X91.8Y-134.5
X95.95Y-122.3
X95.95Y-134.5
X101.95Y-120.3
X107.95Y-122.3
X107.95Y-134.5
T13
X74.775Y-75.4
X74.775Y-80.4
X74.775Y-85.4
X74.775Y-90.4
X74.775Y-96.4
X74.775Y-101.4
X74.775Y-106.4
X74.775Y-111.4
T14
X113.017Y-178.31
X129.277Y-178.31
T15
X89.9Y-39.2
X89.9Y-111.2
X111.75Y-39.295
X111.75Y-111.295
T16
X70.921Y-178.459
X86.923Y-148.487
X92.371Y-178.484
X108.373Y-148.512
M30
